<!DOCTYPE svg PUBLIC "-//W3C//DTD SVG 1.1//EN" "http://www.w3.org/Graphics/SVG/1.1/DTD/svg11.dtd">
<!-- Uploaded to: SVG Repo, www.svgrepo.com, Transformed by: SVG Repo Mixer Tools -->
<svg fill="#dd760b" height="100px" width="100px" version="1.1" id="Layer_1" xmlns="http://www.w3.org/2000/svg" xmlns:xlink="http://www.w3.org/1999/xlink" viewBox="0 0 512.001 512.001" xml:space="preserve">
<g id="SVGRepo_bgCarrier" stroke-width="0"/>
<g id="SVGRepo_tracerCarrier" stroke-linecap="round" stroke-linejoin="round"/>
<g id="SVGRepo_iconCarrier"> <g> <g> <path d="M270.8,134.369h-74.075c-8.301,0-15.055,6.754-15.055,15.055v32.768c0,0.975,0.101,1.924,0.278,2.848h28.269 c9.303,0,17.688,3.989,23.546,10.341c5.858-6.352,14.243-10.341,23.545-10.341h28.269c0.178-0.924,0.278-1.873,0.278-2.848 v-32.768C285.855,141.123,279.101,134.369,270.8,134.369z"/> </g> </g> <g> <g> <path d="M391.965,134.369h-74.073c-8.302,0-15.056,6.754-15.056,15.055v32.768c0,0.975,0.101,1.924,0.278,2.848h28.269 c9.302,0,17.687,3.989,23.544,10.341c5.858-6.352,14.243-10.341,23.546-10.341h28.269c0.178-0.924,0.278-1.873,0.278-2.848 v-32.768C407.02,141.123,400.266,134.369,391.965,134.369z"/> </g> </g> <g> <g> <path d="M210.219,202.019h-74.075c-8.301,0-15.055,6.754-15.055,15.055V241.6h104.185v-24.526 C225.274,208.773,218.52,202.019,210.219,202.019z"/> </g> </g> <g> <g> <path d="M331.382,202.019h-74.075c-8.301,0-15.055,6.754-15.055,15.055V241.6h104.185v-24.526 C346.438,208.773,339.683,202.019,331.382,202.019z"/> </g> </g> <g> <g> <path d="M452.546,202.019h-74.073c-8.302,0-15.057,6.754-15.057,15.055V241.6h104.185v-24.526 C467.601,208.773,460.847,202.019,452.546,202.019z"/> </g> </g> <g> <g> <path d="M24.463,342.456v26.94c0,4.548,3.687,8.236,8.236,8.236h401.578c4.465,0,8.118-3.56,8.232-8.024l0.396-15.408 l9.558-11.743H24.463z"/> </g> </g> <g> <g> <path d="M506.371,258.58H73.772v-0.001V241.6v-8.23c0-9.377-7.602-16.978-16.978-16.978c-9.377,0-16.978,7.602-16.978,16.978v8.23 v16.978H10.83c-9.714,2.378-14.4,14.428-7.657,22.835l21.291,26.545v17.517h441.819l43.856-53.886 C513.927,266.935,511.566,260.29,506.371,258.58z"/> </g> </g> </g>
</svg>